# AST/ASF file generated using VICON BodyLanguage
# -----------------------------------------------
:version 1.10
:name VICON
:units
  mass 1.0
  length 0.45
  angle deg
:documentation
   .ast/.asf automatically generated from VICON data using
   VICON BodyBuilder and BodyLanguage model FoxedUp or BRILLIANT.MOD
:root
   order TX TY TZ RX RY RZ
   axis XYZ
   position 0 0 0  
   orientation 0 0 0 
:bonedata
  begin
     id 1 
     name lhipjoint
     direction 0.692814 -0.645514 0.321437 
     length 2.38754 
     axis 0 0 0  XYZ
  end
  begin
     id 2 
     name lfemur
     direction 0.34202 -0.939693 0  
     length 6.41921  
     axis 0 0 20  XYZ
    dof rx ry rz
    limits (-160.0 20.0)
           (-70.0 70.0)
           (-60.0 70.0)
  end
  begin
     id 3 
     name ltibia
     direction 0.34202 -0.939693 0   
     length 6.98247   
     axis 0 0 20   XYZ
    dof rx
    limits (-10.0 170.0)
  end
  begin
     id 4 
     name lfoot
     direction 0.0947186 -0.260237 0.960888   
     length 1.83034   
     axis -90 7.62852e-016 20   XYZ
    dof rx rz
    limits (-45.0 90.0)
           (-70.0 20.0)
  end
  begin
     id 5 
     name ltoes
     direction 1.53538e-011 -4.21952e-011 1   
     length 0.920499   
     axis -90 7.62852e-016 20   XYZ
    dof rx
    limits (-90.0 20.0)
  end
  begin
     id 6 
     name rhipjoint
     direction -0.631686 -0.693949 0.345555   
     length 2.2209  
     axis 0 0 0  XYZ 
  end
  begin
     id 7 
     name rfemur
     direction -0.34202 -0.939693 0   
     length 6.49542   
     axis 0 0 -20   XYZ
    dof rx ry rz
    limits (-160.0 20.0)
           (-70.0 70.0)
           (-70.0 60.0)
  end
  begin
     id 8 
     name rtibia
     direction -0.34202 -0.939693 0   
     length 7.21712   
     axis 0 0 -20   XYZ
    dof rx
    limits (-10.0 170.0)
 end
 begin
     id 9 
     name rfoot
     direction -0.0825378 -0.226771 0.970444   
     length 1.89724  
     axis -90 -7.62852e-016 -20   XYZ
    dof rx rz
    limits (-45.0 90.0)
           (-20.0 70.0)
  end
  begin
     id 10 
     name rtoes
     direction -1.53515e-011 -4.22016e-011 1   
     length 0.955868   
     axis -90 -7.62852e-016 -20   XYZ
    dof rx
    limits (-90.0 20.0)
  end
  begin
     id 11 
     name lowerback
     direction -0.0104711 0.984802 -0.173368   
     length 1.84931   
     axis 0 0 0   XYZ
    dof rx ry rz
    limits (-20.0 45.0)
           (-30.0 30.0)
           (-30.0 30.0)
  end
  begin
     id 12 
     name upperback
     direction -0.00286433 0.999996 -0.000382853   
     length 1.85768   
     axis 0 0 0   XYZ
    dof rx ry rz
    limits (-20.0 45.0)
           (-30.0 30.0)
           (-30.0 30.0)
  end
  begin
     id 13 
     name thorax
     direction 0.00167534 0.996793 0.0800069   
     length 1.92   
     axis 0 0 0   XYZ
    dof rx ry rz
    limits (-20.0 45.0)
           (-30.0 30.0)
           (-30.0 30.0)
  end
  begin
     id 14 
     name lowerneck
     direction -0.0672491 0.995415 0.068018   
     length 1.58923   
     axis 0 0 0   XYZ
    dof rx ry rz
    limits (-20.0 45.0)
           (-30.0 30.0)
           (-30.0 30.0)
  end
  begin
     id 15 
     name upperneck
     direction 0.0958019 0.982476 -0.159884   
     length 1.60189   
     axis 0 0 0   XYZ
    dof rx ry rz
    limits (-20.0 45.0)
           (-30.0 30.0)
           (-30.0 30.0)
  end
  begin
     id 16
     name head
     direction 0.032989 0.997338 -0.0650226  
     length 1.61681  
     axis 0 0 0   XYZ
    dof rx ry rz
    limits (-20.0 45.0)
           (-30.0 30.0)
           (-30.0 30.0)
  end
  begin
     id 17 
     name lclavicle
     direction 0.954279 0.298875 -0.00496069  
     length 2.99449  
     axis 0 0 0   XYZ
    dof ry rz
    limits (-20.0 10.0)
           (0.0 20.0)
  end
  begin
     id 18 
     name lhumerus
     direction 1 -4.48985e-011 -4.2057e-027   
     length 4.79185   
     axis 180 -30 -90   XYZ
    dof rx ry rz
    limits (-60.0 90.0)
           (-90.0 90.0)
           (-90.0 90.0)
  end
  begin
     id 19
     name lradius
     direction 1 -4.48945e-011 1.15441e-028   
     length 2.65553   
     axis 180 -30 -90   XYZ
    dof rx
    limits (-10.0 170.0)
  end
  begin
     id 20
     name lwrist
     direction 1 -4.4899e-011 4.8894e-028   
     length 1.32777   
     axis -2.56392e-016 90 90   XYZ
    dof ry
    limits (-180.0 0.0)
 end
  begin
     id 21 
     name lhand
     direction 1 -4.48908e-011 9.7788e-028   
     length 0.743904   
     axis -6.23971e-016 90 90   XYZ
    dof rx rz
    limits (-90.0 90.0)
           (-45.0 45.0)
  end
  begin
     id 22 
     name lfingers
     direction 1 -4.49068e-011 1.95576e-027   
     length 0.599754   
     axis -1.24794e-015 90 90   XYZ
    dof rx
    limits (0.0 90.0)
  end
  begin
     id 23
     name lthumb
     direction 0.707107 -6.34883e-011 0.707107   
     length 0.861131   
     axis -90 45 2.85299e-015   XYZ
    dof rx rz
    limits (-45.0 45.0)
           (-45.0 45.0)
  end
  begin
     id 24 
     name rclavicle
     direction -0.957921 0.286916 0.00811568   
     length 3.06817  
     axis 0 0 0   XYZ 
    dof ry rz
    limits (-10.0 20.0)
           (-20.0 0.0)
  end
  begin
     id 25 
     name rhumerus
     direction -1 -4.48971e-011 -3.07942e-027  
     length 4.77254   
     axis 180 30 90   XYZ
    dof rx ry rz
    limits (-90.0 60.0)
           (-90.0 90.0)
           (-90.0 90.0)
  end
  begin
     id 26 
     name rradius
     direction -1 -4.48957e-011 -9.6815e-028   
     length 2.75995   
     axis 180 30 90   XYZ
    dof rx
    limits (-10.0 170.0)
  end
  begin
     id 27 
     name rwrist
     direction -1 -4.48979e-011 4.8894e-028   
     length 1.37997   
     axis -2.56392e-016 -90 -90   XYZ
    dof ry
    limits (-180.0 0.0)
  end
  begin
     id 28
     name rhand
     direction -1 -4.48906e-011 9.7788e-028   
     length 0.701619   
     axis -6.23971e-016 -90 -90   XYZ
    dof rx rz
    limits (-90.0 90.0)
           (-45.0 45.0)
  end
  begin
     id 29
     name rfingers
     direction -1 -4.49018e-011 1.95576e-027   
     length 0.565663   
     axis -1.24794e-015 -90 -90   XYZ
    dof rx
    limits (0.0 90.0)
  end
  begin
     id 30
     name rthumb
     direction -0.707107 -6.34881e-011 0.707107   
     length 0.812183   
     axis -90 -45 -2.85299e-015   XYZ
    dof rx rz
    limits (-45.0 45.0)
           (-45.0 45.0)
  end
:hierarchy
  begin
    root lhipjoint rhipjoint lowerback
    lhipjoint lfemur
    lfemur ltibia
    ltibia lfoot
    lfoot ltoes
    rhipjoint rfemur
    rfemur rtibia
    rtibia rfoot
    rfoot rtoes
    lowerback upperback
    upperback thorax
    thorax lowerneck lclavicle rclavicle
    lowerneck upperneck
    upperneck head
    lclavicle lhumerus
    lhumerus lradius
    lradius lwrist
    lwrist lhand lthumb
    lhand lfingers
    rclavicle rhumerus
    rhumerus rradius
    rradius rwrist
    rwrist rhand rthumb
    rhand rfingers
  end

#!OML:ASF F:\VICON\USERDATA\INSTALL\rory3\rory3.ASF
:FULLY-SPECIFIED
:DEGREES
1001
root -0.268113 15.683 -1.11053 11.5221 34.1388 -16.9114
lowerback 24.2055 -2.14152 -5.45667
upperback 6.34372 -3.83521 0.761437
thorax -6.00568 -1.75821 5.03195
lowerneck 0.631478 -17.0281 -18.7457
upperneck 4.92297 -24.8435 24.0103
head 6.92922 -12.2538 8.11331
rclavicle -2.06736e-014 -1.59028e-014
rhumerus -71.036 23.192 -102.698
rradius 68.0975
rwrist -55.1806
rhand -5.27332 6.83958
rfingers 7.12502
rthumb 20.5308 -22.0948
lclavicle -2.06736e-014 -1.59028e-014
lhumerus 31.1802 -24.0032 4.76134
lradius 80.3132
lwrist 52.0623
lhand 11.6308 17.2081
lfingers 7.12502
lthumb 36.6714 43.3568
rfemur -30.747 -10.4049 37.6874
rtibia 30.2882
rfoot -16.1997 -18.0288
rtoes -6.25445
lfemur -50.8978 -13.3605 9.59867
ltibia 39.8689
lfoot -4.1513 -14.5063
ltoes -0.199954
1002
root -0.268873 15.6859 -1.11073 11.543 34.119 -16.8358
lowerback 24.2129 -2.10947 -5.50647
upperback 6.34314 -3.80457 0.783545
thorax -6.00834 -1.74308 5.07681
lowerneck 0.69751 -17.0358 -18.7938
upperneck 4.90736 -24.8509 23.964
head 6.9135 -12.2636 8.10925
rclavicle -4.29375e-014 -3.18055e-015
rhumerus -69.5721 23.2355 -102.554
rradius 66.4621
rwrist -55.008
rhand -5.23046 6.68919
rfingers 7.12502
rthumb 20.572 -22.2408
lclavicle -4.29375e-014 -3.18055e-015
lhumerus 31.2265 -24.0676 4.88974
lradius 80.2216
lwrist 52.0242
lhand 11.7359 17.2201
lfingers 7.12502
lthumb 36.7709 43.3435
rfemur -30.6808 -10.4646 37.6259
rtibia 30.1996
rfoot -16.1625 -17.9636
rtoes -5.90636
lfemur -50.8185 -13.3705 9.51644
ltibia 39.778
lfoot -4.12962 -14.4953
ltoes -0.250554
1003
root -0.27128 15.6893 -1.11332 11.5626 34.0299 -16.7288
lowerback 24.2809 -2.04258 -5.60203
upperback 6.31765 -3.74587 0.791154
thorax -6.0703 -1.71101 5.12909
lowerneck 0.756575 -17.0461 -18.8179
upperneck 4.93854 -24.8612 23.8642
head 6.90247 -12.273 8.08357
rclavicle -3.49861e-014 -2.54444e-014
rhumerus -68.3667 23.335 -102.542
rradius 65.1388
rwrist -55.0007
rhand -5.40796 6.50089
rfingers 7.12502
rthumb 20.4014 -22.4474
lclavicle -3.49861e-014 -2.54444e-014
lhumerus 31.2781 -24.1558 4.97637
lradius 80.175
lwrist 52.0323
lhand 11.8465 17.3972
lfingers 7.12502
lthumb 36.8755 43.4937
rfemur -30.6067 -10.3728 37.4908
rtibia 30.1816
rfoot -16.2481 -17.876
rtoes -5.04735
lfemur -50.6877 -13.3469 9.38563
ltibia 39.6694
lfoot -4.13557 -14.4483
ltoes -0.576257
1004
root -0.274352 15.6921 -1.11597 11.6308 33.9144 -16.5947
lowerback 24.3404 -1.97461 -5.70382
upperback 6.26283 -3.69063 0.776696
thorax -6.16145 -1.67875 5.16228
lowerneck 0.78095 -17.0563 -18.836
upperneck 5.00697 -24.8731 23.7607
head 6.90803 -12.2793 8.05207
rclavicle -4.29375e-014 4.77083e-014
rhumerus -67.3527 23.4652 -102.738
rradius 63.9506
rwrist -54.8227
rhand -5.97622 6.60004
rfingers 7.12502
rthumb 19.8552 -22.4057
lclavicle -4.29375e-014 4.77083e-014
lhumerus 31.3339 -24.2686 5.01063
lradius 80.1111
lwrist 52.0363
lhand 12.0409 17.4649
lfingers 7.12502
lthumb 37.0594 43.514
rfemur -30.6034 -10.2723 37.3492
rtibia 30.1866
rfoot -16.2039 -17.8794
rtoes -5.3118
lfemur -50.5728 -13.3077 9.25002
ltibia 39.5591
lfoot -4.08952 -14.3942
ltoes -0.474748
1005
root -0.276698 15.6931 -1.11738 11.687 33.804 -16.444
lowerback 24.3929 -1.8945 -5.82132
upperback 6.22567 -3.62131 0.775233
thorax -6.22937 -1.64084 5.21358
lowerneck 0.779274 -17.0893 -18.8267
upperneck 5.05114 -24.9031 23.6183
head 6.90463 -12.2935 7.99837
rclavicle 4.29375e-014 6.04305e-014
rhumerus -66.5045 23.5731 -102.95
rradius 62.889
rwrist -54.4732
rhand -6.59311 7.05619
rfingers 7.12502
rthumb 19.2621 -22.0099
lclavicle 4.29375e-014 6.04305e-014
lhumerus 31.4041 -24.3895 5.06293
lradius 80.0749
lwrist 52.0751
lhand 12.1786 17.488
lfingers 7.12502
lthumb 37.1896 43.5032
rfemur -30.598 -10.2609 37.2162
rtibia 30.2185
rfoot -16.1518 -17.8508
rtoes -5.78972
lfemur -50.4284 -13.281 9.09576
ltibia 39.4398
lfoot -4.02792 -14.3894
ltoes -0.355736
1006
root -0.28101 15.6954 -1.11927 11.71 33.7126 -16.2899
lowerback 24.4881 -1.81973 -5.92514
upperback 6.20748 -3.55871 0.747755
thorax -6.30013 -1.60602 5.23186
lowerneck 0.790694 -17.1222 -18.7773
upperneck 5.08906 -24.9412 23.5187
head 6.90036 -12.3117 7.95308
rclavicle 6.36111e-015 6.36111e-015
rhumerus -65.8854 23.6858 -103.117
rradius 62.2267
rwrist -54.0974
rhand -6.912 7.33481
rfingers 7.12502
rthumb 18.9555 -21.7616
lclavicle 6.36111e-015 6.36111e-015
lhumerus 31.4622 -24.4713 5.08696
lradius 80.0781
lwrist 52.1257
lhand 12.1761 17.4557
lfingers 7.12502
lthumb 37.1872 43.4715
rfemur -30.5732 -10.2144 37.0649
rtibia 30.2789
rfoot -16.1664 -17.847
rtoes -6.06473
lfemur -50.269 -13.2613 8.93288
ltibia 39.3138
lfoot -3.96124 -14.393
ltoes -0.405185
1007
root -0.285197 15.6969 -1.12316 11.782 33.6162 -16.0788
lowerback 24.5713 -1.75513 -6.06286
upperback 6.19384 -3.51809 0.702234
thorax -6.35601 -1.58206 5.25463
lowerneck 0.811765 -17.1453 -18.7393
upperneck 5.0876 -24.9717 23.493
head 6.8938 -12.3276 7.93567
rclavicle 9.54166e-015 -2.22639e-014
rhumerus -65.4326 23.8656 -103.28
rradius 61.8938
rwrist -53.7863
rhand -7.14897 7.31116
rfingers 7.12502
rthumb 18.7275 -21.8073
lclavicle 9.54166e-015 -2.22639e-014
lhumerus 31.5309 -24.5238 5.08672
lradius 80.0686
lwrist 52.2256
lhand 12.1449 17.4335
lfingers 7.12502
lthumb 37.1578 43.457
rfemur -30.5863 -10.107 36.8436
rtibia 30.3605
rfoot -16.2109 -17.8812
rtoes -6.12307
lfemur -50.1484 -13.2646 8.72619
ltibia 39.1881
lfoot -3.92067 -14.3386
ltoes -0.51449
